<?xml version="1.0" standalone="no"?>
<!DOCTYPE svg PUBLIC "-//W3C//DTD SVG 20010904//EN"
 "http://www.w3.org/TR/2001/REC-SVG-20010904/DTD/svg10.dtd">
<svg version="1.0" xmlns="http://www.w3.org/2000/svg"
 width="500.000000pt" height="500.000000pt" viewBox="0 0 500.000000 500.000000"
 preserveAspectRatio="xMidYMid meet">

<g transform="translate(0.000000,500.000000) scale(0.100000,-0.100000)"
fill="#000000" stroke="none">
<path d="M0 2500 l0 -2500 2500 0 2500 0 0 2500 0 2500 -2500 0 -2500 0 0
-2500z m2433 805 c136 -35 235 -116 294 -242 83 -173 37 -386 -110 -514 l-42
-36 50 -26 c209 -105 348 -312 362 -538 7 -100 -5 -144 -50 -196 -65 -74 -54
-73 -602 -73 -542 0 -533 -1 -598 66 -53 53 -60 77 -55 198 4 91 10 123 33
181 60 152 172 279 306 350 l69 36 -60 58 c-139 136 -171 330 -85 508 88 180
297 278 488 228z"/>
<path d="M2192 3170 c-69 -35 -125 -92 -156 -159 -16 -35 -21 -66 -21 -131 0
-73 4 -93 28 -142 54 -109 166 -178 291 -178 89 0 147 23 215 86 77 71 104
132 104 235 0 95 -31 168 -98 233 -93 91 -246 114 -363 56z"/>
<path d="M2203 2426 c-235 -59 -413 -280 -413 -512 0 -53 4 -65 26 -87 17 -17
42 -29 72 -33 26 -4 245 -4 487 0 405 6 442 8 465 25 37 27 45 70 32 159 -30
193 -173 367 -357 433 -76 27 -236 35 -312 15z"/>
</g>
</svg>
